<svg width="196" height="36" viewBox="0 0 196 36" fill="none" xmlns="http://www.w3.org/2000/svg">
<path d="M17.165 25.8398L25.2451 32.2383L21.3691 35.6016L13.4121 29.2031L17.165 25.8398ZM25.4502 14.6426V16.0576C25.4502 18.3271 25.1426 20.3643 24.5273 22.1689C23.9258 23.9736 23.0576 25.5117 21.9229 26.7832C20.7881 28.041 19.4482 29.0049 17.9033 29.6748C16.3584 30.3447 14.6426 30.6797 12.7559 30.6797C10.8828 30.6797 9.16699 30.3447 7.6084 29.6748C6.0498 29.0049 4.70312 28.041 3.56836 26.7832C2.43359 25.5117 1.55176 23.9736 0.922852 22.1689C0.307617 20.3643 0 18.3271 0 16.0576V14.6426C0 12.3594 0.307617 10.3223 0.922852 8.53125C1.55176 6.72656 2.42676 5.18848 3.54785 3.91699C4.66895 2.64551 6.00879 1.6748 7.56738 1.00488C9.12598 0.334961 10.8418 0 12.7148 0C14.6016 0 16.3174 0.334961 17.8623 1.00488C19.4209 1.6748 20.7676 2.64551 21.9023 3.91699C23.0371 5.18848 23.9121 6.72656 24.5273 8.53125C25.1426 10.3223 25.4502 12.3594 25.4502 14.6426ZM19.2363 16.0576V14.6016C19.2363 13.0156 19.0859 11.6211 18.7852 10.418C18.498 9.21484 18.0742 8.20312 17.5137 7.38281C16.9668 6.5625 16.29 5.94727 15.4834 5.53711C14.6768 5.11328 13.7539 4.90137 12.7148 4.90137C11.6758 4.90137 10.7529 5.11328 9.94629 5.53711C9.13965 5.94727 8.46289 6.5625 7.91602 7.38281C7.36914 8.20312 6.95215 9.21484 6.66504 10.418C6.37793 11.6211 6.23438 13.0156 6.23438 14.6016V16.0576C6.23438 17.6299 6.37793 19.0244 6.66504 20.2412C6.95215 21.4443 7.36914 22.4629 7.91602 23.2969C8.47656 24.1172 9.16016 24.7393 9.9668 25.1631C10.7871 25.5869 11.7168 25.7988 12.7559 25.7988C13.7949 25.7988 14.7109 25.5869 15.5039 25.1631C16.3105 24.7393 16.9873 24.1172 17.5342 23.2969C18.0947 22.4629 18.5186 21.4443 18.8057 20.2412C19.0928 19.0244 19.2363 17.6299 19.2363 16.0576ZM42.041 5.5166L33.9199 30.2695H27.3779L38.4727 0.410156H42.6357L42.041 5.5166ZM48.7881 30.2695L40.6465 5.5166L39.9902 0.410156H44.1943L55.3506 30.2695H48.7881ZM48.4189 19.1543V23.9736H32.6484V19.1543H48.4189ZM79.7139 25.4707V30.2695H58.5498V25.4707H79.7139ZM79.4062 3.83496L61.2773 30.2695H56.9502V26.7422L75.2227 0.410156H79.4062V3.83496ZM77.2939 0.410156V5.22949H56.9707V0.410156H77.2939ZM106.579 0.410156V30.2695H105.472L86.1943 2.29688V30.2695H85.0664V0.410156H86.1943L105.472 28.3213V0.410156H106.579ZM132.973 29.1621V30.2695H115.192V29.1621H132.973ZM115.91 0.410156V30.2695H114.803V0.410156H115.91ZM130.881 14.3555V15.4629H115.192V14.3555H130.881ZM132.973 0.410156V1.51758H115.192V0.410156H132.973ZM145.995 23.502L153.05 0.410156H154.239L152.64 5.37305L145.175 30.2695H144.129L145.995 23.502ZM137.095 0.410156L143.288 23.502L145.154 30.2695H143.924L135.864 0.410156H137.095ZM164.021 23.502L170.174 0.410156H171.384L163.345 30.2695H162.114L164.021 23.502ZM154.28 0.410156L161.294 23.502L163.14 30.2695H162.094L154.69 5.37305L153.07 0.410156H154.28ZM194.66 23.1123C194.66 22.1689 194.496 21.3281 194.168 20.5898C193.84 19.8516 193.313 19.1885 192.589 18.6006C191.864 18.0127 190.914 17.4727 189.738 16.9805C188.576 16.4883 187.147 16.0098 185.452 15.5449C183.935 15.1348 182.567 14.6973 181.351 14.2324C180.134 13.7539 179.095 13.207 178.233 12.5918C177.386 11.9766 176.736 11.2451 176.285 10.3975C175.834 9.53613 175.608 8.50391 175.608 7.30078C175.608 6.16602 175.854 5.14746 176.347 4.24512C176.853 3.34277 177.55 2.57715 178.438 1.94824C179.341 1.31934 180.394 0.84082 181.597 0.512695C182.8 0.170898 184.105 0 185.514 0C187.455 0 189.171 0.369141 190.661 1.10742C192.151 1.8457 193.32 2.87793 194.168 4.2041C195.029 5.5166 195.46 7.05469 195.46 8.81836H194.353C194.353 7.3418 193.983 6.02246 193.245 4.86035C192.507 3.69824 191.475 2.78223 190.148 2.1123C188.836 1.44238 187.291 1.10742 185.514 1.10742C183.641 1.10742 182.048 1.39453 180.735 1.96875C179.423 2.54297 178.425 3.30176 177.741 4.24512C177.058 5.1748 176.716 6.17969 176.716 7.25977C176.716 8.05273 176.853 8.79102 177.126 9.47461C177.413 10.1582 177.892 10.7939 178.562 11.3818C179.231 11.9561 180.154 12.5029 181.33 13.0225C182.506 13.5283 183.982 14.0137 185.76 14.4785C187.236 14.8613 188.583 15.292 189.8 15.7705C191.03 16.249 192.09 16.8164 192.979 17.4727C193.881 18.1289 194.571 18.915 195.05 19.8311C195.542 20.7334 195.788 21.8135 195.788 23.0713C195.788 24.2881 195.521 25.3682 194.988 26.3115C194.469 27.2549 193.744 28.0547 192.814 28.7109C191.885 29.3535 190.805 29.8457 189.574 30.1875C188.357 30.5156 187.052 30.6797 185.657 30.6797C184.386 30.6797 183.101 30.5293 181.802 30.2285C180.503 29.9277 179.313 29.4424 178.233 28.7725C177.153 28.0889 176.285 27.1797 175.629 26.0449C174.973 24.9102 174.645 23.5088 174.645 21.8408H175.752C175.752 23.3311 176.06 24.5752 176.675 25.5732C177.29 26.5713 178.09 27.3643 179.074 27.9521C180.072 28.5264 181.146 28.9434 182.294 29.2031C183.456 29.4492 184.577 29.5723 185.657 29.5723C187.407 29.5723 188.959 29.2988 190.312 28.752C191.666 28.2051 192.726 27.4463 193.491 26.4756C194.271 25.5049 194.66 24.3838 194.66 23.1123Z" fill="#3232FF"/>
</svg>
