<svg width="16" height="16" viewBox="0 0 16 16" fill="none" xmlns="http://www.w3.org/2000/svg">
<g clip-path="url(#clip0_74_45)">
<path fill-rule="evenodd" clip-rule="evenodd" d="M1.88498 0.511002C2.05996 0.336291 2.27006 0.20076 2.50138 0.113392C2.7327 0.0260236 2.97994 -0.0111874 3.22672 0.00422482C3.47351 0.019637 3.7142 0.0873205 3.93285 0.20279C4.15149 0.318259 4.34311 0.478878 4.49498 0.674002L6.28998 2.98C6.61898 3.403 6.73498 3.954 6.60498 4.474L6.05798 6.664C6.0299 6.77744 6.03153 6.8962 6.0627 7.00883C6.09388 7.12146 6.15356 7.22415 6.23598 7.307L8.69298 9.764C8.77593 9.84659 8.87879 9.90637 8.99161 9.93755C9.10443 9.96874 9.2234 9.97027 9.33698 9.942L11.526 9.395C11.7826 9.33121 12.0504 9.32642 12.3091 9.38097C12.5679 9.43553 12.8109 9.54803 13.02 9.71L15.326 11.504C16.155 12.149 16.231 13.374 15.489 14.115L14.455 15.149C13.715 15.889 12.609 16.214 11.578 15.851C8.93865 14.9236 6.54252 13.4128 4.56798 11.431C2.58636 9.45675 1.07553 7.06097 0.147983 4.422C-0.214017 3.392 0.110983 2.285 0.850983 1.545L1.88498 0.511002Z" fill="#3232FF"/>
</g>
<defs>
<clipPath id="clip0_74_45">
<rect width="16" height="16" fill="white"/>
</clipPath>
</defs>
</svg>
