<svg width="14" height="16" viewBox="0 0 14 16" fill="none" xmlns="http://www.w3.org/2000/svg">
<path d="M5.321 6.016C5.051 5.836 4.155 5.214 4.155 5.214C4.911 4.133 5.908 3.712 7.287 3.712C8.262 3.712 9.09 4.039 9.681 4.66C10.272 5.281 10.609 6.169 10.686 7.304C11.014 7.442 11.3157 7.60333 11.591 7.788C12.7 8.533 13.31 9.648 13.31 10.925C13.31 13.641 11.084 16 7.054 16C3.594 16 0 13.987 0 7.994C0 2.034 3.482 0 7.044 0C8.69 0 12.55 0.243 14 5.036L12.64 5.389C11.516 1.974 9.163 1.43 7.006 1.43C3.441 1.43 1.424 3.601 1.424 8.22C1.424 12.363 3.678 14.563 7.054 14.563C9.831 14.563 11.901 13.12 11.901 11.007C11.901 9.569 10.693 8.88 10.631 8.88C10.395 10.114 9.763 12.19 6.987 12.19C5.369 12.19 3.974 11.072 3.974 9.608C3.974 7.518 5.958 6.761 7.524 6.761C8.11 6.761 8.818 6.801 9.187 6.875C9.187 6.238 8.647 5.147 7.287 5.147C6.037 5.147 5.721 5.552 5.32 6.015L5.321 6.016ZM7.716 8.19C5.676 8.19 5.412 9.06 5.412 9.606C5.412 10.484 6.455 10.774 7.012 10.774C8.032 10.774 9.079 10.492 9.244 8.351C8.74331 8.23419 8.23004 8.1801 7.716 8.19Z" fill="white"/>
</svg>
